<svg width="100%" height="100%" viewBox="0 0 400 400" fill="none" xmlns="http://www.w3.org/2000/svg">
  <!-- Truck body -->
  <rect x="80" y="180" width="160" height="80" rx="8" stroke="currentColor" stroke-width="4" fill="currentColor" fill-opacity="0.1" class="text-[var(--brand-primary)]"/>
  
  <!-- Truck cab -->
  <rect x="240" y="140" width="80" height="120" rx="8" stroke="currentColor" stroke-width="4" fill="currentColor" fill-opacity="0.1"/>
  
  <!-- Truck wheels -->
  <circle cx="120" cy="280" r="20" stroke="currentColor" stroke-width="4" fill="currentColor" fill-opacity="0.2"/>
  <circle cx="200" cy="280" r="20" stroke="currentColor" stroke-width="4" fill="currentColor" fill-opacity="0.2"/>
  <circle cx="280" cy="280" r="20" stroke="currentColor" stroke-width="4" fill="currentColor" fill-opacity="0.2"/>
  
  <!-- ELD Device/Screen -->
  <rect x="260" y="160" width="40" height="30" rx="4" stroke="currentColor" stroke-width="3" fill="currentColor" fill-opacity="0.05"/>
  <rect x="265" y="165" width="30" height="20" rx="2" stroke="currentColor" stroke-width="1"/>
  
  <!-- Data/Log lines on screen -->
  <path d="M268 170L292 170" stroke="currentColor" stroke-width="1"/>
  <path d="M268 175L288 175" stroke="currentColor" stroke-width="1"/>
  <path d="M268 180L290 180" stroke="currentColor" stroke-width="1"/>
  
  <!-- Clock/Time indicator -->
  <circle cx="140" cy="120" r="25" stroke="currentColor" stroke-width="3" fill="currentColor" fill-opacity="0.05"/>
  <path d="M140 105L140 120L150 130" stroke="currentColor" stroke-width="2"/>
  
  <!-- Route/GPS lines -->
  <path d="M60 60Q100 80 140 60Q180 40 220 60Q260 80 300 60" stroke="currentColor" stroke-width="3" fill="none"/>
  <circle cx="100" cy="75" r="4" fill="currentColor"/>
  <circle cx="180" cy="45" r="4" fill="currentColor"/>
  <circle cx="260" cy="75" r="4" fill="currentColor"/>
  
  <!-- Document/Log icon -->
  <rect x="180" y="320" width="60" height="80" rx="4" stroke="currentColor" stroke-width="3" fill="currentColor" fill-opacity="0.05"/>
  <path d="M190 340L230 340" stroke="currentColor" stroke-width="2"/>
  <path d="M190 355L220 355" stroke="currentColor" stroke-width="2"/>
  <path d="M190 370L225 370" stroke="currentColor" stroke-width="2"/>
  <path d="M190 385L215 385" stroke="currentColor" stroke-width="2"/>
</svg> 