<svg width="100%" height="100%" viewBox="0 0 400 400" fill="none" xmlns="http://www.w3.org/2000/svg">
  <!-- Wrench -->
  <path d="M120 150L150 120L170 140L190 120L210 140L240 110L260 130L230 160L210 180L190 160L170 180L150 160L120 190L100 170L120 150Z" stroke="currentColor" stroke-width="4" fill="currentColor" fill-opacity="0.1" class="text-[var(--brand-primary)]"/>
  
  <!-- Screwdriver -->
  <rect x="280" y="80" width="8" height="120" rx="4" fill="currentColor" transform="rotate(45 284 140)"/>
  <rect x="276" y="76" width="16" height="20" rx="2" fill="currentColor" transform="rotate(45 284 86)"/>
  
  <!-- Gear -->
  <circle cx="150" cy="280" r="40" stroke="currentColor" stroke-width="4" fill="currentColor" fill-opacity="0.1"/>
  <circle cx="150" cy="280" r="20" stroke="currentColor" stroke-width="4"/>
  <rect x="145" y="235" width="10" height="15" rx="2" fill="currentColor"/>
  <rect x="145" y="330" width="10" height="15" rx="2" fill="currentColor"/>
  <rect x="105" y="275" width="15" height="10" rx="2" fill="currentColor"/>
  <rect x="180" y="275" width="15" height="10" rx="2" fill="currentColor"/>
  
  <!-- Phone/Device being repaired -->
  <rect x="250" y="200" width="80" height="140" rx="8" stroke="currentColor" stroke-width="4"/>
  <rect x="260" y="220" width="60" height="80" rx="4" stroke="currentColor" stroke-width="2" fill="currentColor" fill-opacity="0.05"/>
  <circle cx="290" cy="320" r="8" stroke="currentColor" stroke-width="2"/>
  
  <!-- Repair indicators (sparks/action lines) -->
  <path d="M310 160L320 170M320 150L330 160M300 170L310 180" stroke="currentColor" stroke-width="2"/>
</svg> 