<svg width="100%" height="100%" viewBox="0 0 400 400" fill="none" xmlns="http://www.w3.org/2000/svg">
  <rect x="50" y="80" width="300" height="200" rx="8" stroke="currentColor" stroke-width="4" class="text-[var(--brand-primary)]"/>
  <rect x="70" y="100" width="260" height="140" rx="4" stroke="currentColor" stroke-width="4"/>
  <rect x="150" y="280" width="100" height="10" rx="2" fill="currentColor"/>
  <rect x="70" y="100" width="260" height="20" rx="2" fill="currentColor" fill-opacity="0.1"/>
  <circle cx="85" cy="110" r="4" fill="currentColor"/>
  <circle cx="105" cy="110" r="4" fill="currentColor"/>
  <circle cx="125" cy="110" r="4" fill="currentColor"/>
  <rect x="85" y="140" width="80" height="80" rx="4" stroke="currentColor" stroke-width="2"/>
  <path d="M95 170L155 170" stroke="currentColor" stroke-width="2"/>
  <path d="M95 180L135 180" stroke="currentColor" stroke-width="2"/>
  <path d="M95 190L145 190" stroke="currentColor" stroke-width="2"/>
  <rect x="185" y="140" width="120" height="80" rx="4" stroke="currentColor" stroke-width="2"/>
  <path d="M195 160L285 160" stroke="currentColor" stroke-width="2"/>
  <path d="M195 180L265 180" stroke="currentColor" stroke-width="2"/>
  <path d="M195 200L275 200" stroke="currentColor" stroke-width="2"/>
</svg> 